# xmcd
#
# Track frame offsets: 
#        150
#        20978
#        34753
#        51932
#        65307
#        82806
#        104475
#        126843
#
# Disc length: 1866 seconds
#
# Revision: 0
# Processed by: cddbd v1.5.2PL0 Copyright (c) Steve Scherf et al.
# Submitted via: ExactAudioCopy v0.99pb3
#
DISCID=68074808
DTITLE=The Betty Longshots - Recordings 1998 - 1999
DYEAR=1999
DGENRE=Independent
TTITLE0=Emily
TTITLE1=Fall For You
TTITLE2=Like You
TTITLE3=Only For Now
TTITLE4=Boots
TTITLE5=Meow
TTITLE6=Trouble
TTITLE7=Sweet Leaf
EXTD=
EXTT0=
EXTT1=
EXTT2=
EXTT3=
EXTT4=
EXTT5=
EXTT6=
EXTT7=
PLAYORDER=
